# xmcd
#
# Track frame offsets:
#	150
#	13377
#	27607
#	42087
#	53080
#	65265
#	77920
#	89860
#	102640
#	113182
#	124440
#	138800
#	151182
#	162810
#	175905
#
# Disc length: 2477 seconds
#
# Revision: 4
# Processed by: cddbd v1.5.2PL0 Copyright (c) Steve Scherf et al.
# Submitted via: EZCDAudioConverter 6.0.2.1
#
DISCID=cf09ab0f
DTITLE=Slim Whitman - Vintage Collections
DYEAR=1997
DGENRE=Country
TTITLE0=Love Song of the Waterfall
TTITLE1=Indian Love Call
TTITLE2=Song of the Old Water Wheel
TTITLE3=Keep It A Secret
TTITLE4=My Heart Is Broken In Three
TTITLE5=North Wind
TTITLE6=There's A Rainbow In Every Teardrop
TTITLE7=Secret Love
TTITLE8=Rose-Marie
TTITLE9=Siging Hills
TTITLE10=I Talk To The Waves
TTITLE11=More Than Yesterday
TTITLE12=Rainbows Are Back In Style
TTITLE13=Guess Who
TTITLE14=It's A Sin To Tell A Lie
EXTD=
EXTT0=
EXTT1=
EXTT2=
EXTT3=
EXTT4=
EXTT5=
EXTT6=
EXTT7=
EXTT8=
EXTT9=
EXTT10=
EXTT11=
EXTT12=
EXTT13=
EXTT14=
PLAYORDER=
